<?xml version="1.0" encoding="utf-8"?>
<!-- Generator: Adobe Illustrator 24.0.0, SVG Export Plug-In . SVG Version: 6.00 Build 0)  -->
<svg version="1.1" xmlns="http://www.w3.org/2000/svg" xmlns:xlink="http://www.w3.org/1999/xlink" x="0px" y="0px"
	 viewBox="0 0 500 500" style="enable-background:new 0 0 500 500;" xml:space="preserve">
<style type="text/css">
	.st0{display:none;}
	.st1{display:inline;}
	.st2{fill:#96999C;}
	.st3{font-family:'Broadway';}
	.st4{font-size:36px;}
	.st5{letter-spacing:-3;}
	.st6{letter-spacing:-11;}
	.st7{fill:#F8D948;}
	.st8{font-size:72px;}
	.st9{letter-spacing:-14;}
	.st10{letter-spacing:-10;}
	.st11{display:inline;fill:#96999C;}
</style>
<g id="Capa_1" class="st0">
</g>
<g id="logo" class="st0">
	<text transform="matrix(1 0 0 1 68.0586 242.4707)" class="st1"><tspan x="0" y="0" class="st2 st3 st4 st5">d</tspan><tspan x="23.26" y="0" class="st2 st3 st4 st6">e</tspan><tspan x="32.93" y="0" class="st7 st3 st8 st9">V</tspan><tspan x="74.96" y="0" class="st7 st3 st8 st10">A</tspan><tspan x="120.37" y="0" class="st2 st3 st4">rt</tspan></text>
</g>
<g id="Capa_3" class="st0">
	<text transform="matrix(1 0 0 1 191.0586 161.8232)" class="st11 st3 st4 st5">de</text>
</g>
<g id="Capa_5" class="st0">
	<text transform="matrix(1 0 0 1 209.353 250.647)" class="st7 st3 st8 st9">VA</text>
</g>
<g id="Capa_6" class="st0">
	<text transform="matrix(1 0 0 1 294.2939 162)" class="st11 st3 st4">rt</text>
</g>
<g id="Capa_7">
	<path class="st2" d="M91.67,295.24l-0.12,30.35l-0.06,21.48l0.19,30.11v2.79H59.95v-8.07c-3.39,3.39-6.67,5.81-9.84,7.26
		s-6.76,2.17-10.77,2.17c-7.86,0-14.86-2.9-20.98-8.69C10.79,365.48,7,356.4,7,345.39c0-10.68,3.66-19.35,10.99-26.01
		c6.5-5.92,13.8-8.88,21.91-8.88c3.6,0,7.09,0.68,10.46,2.05s6.63,3.41,9.78,6.15l-0.25-23.46H91.67z M60.13,323.79
		c-3.23-2.94-6.13-5.13-8.72-6.58c-2.59-1.45-4.87-2.17-6.86-2.17c-1.57,0-2.64,0.57-3.2,1.71c-0.56,1.14-0.84,3.28-0.84,6.42
		l0.06,2.73v41.71c0.04,3.35,0.19,5.44,0.43,6.27c0.5,1.78,1.7,2.67,3.6,2.67c2.07,0,4.26-0.78,6.58-2.33s5.3-4.25,8.94-8.1V323.79z
		"/>
	<path class="st2" d="M115.62,348.06v19.24c0,3.72,0.23,6.08,0.68,7.08c0.87,1.9,2.92,2.86,6.15,2.86c4.8,0,9.55-1.31,14.25-3.94
		s8.76-6.26,12.2-10.89c1.12-1.53,1.92-2.5,2.42-2.92c0.5-0.41,1.03-0.62,1.61-0.62c0.7,0,1.28,0.26,1.74,0.78
		c0.46,0.52,0.68,1.17,0.68,1.96c0,1.74-1.39,4.08-4.16,7.01c-3.64,3.77-8.16,6.83-13.56,9.19c-5.4,2.36-10.67,3.54-15.8,3.54
		c-8.81,0-16.59-2.96-23.34-8.88c-3.93-3.48-6.95-7.76-9.06-12.85c-1.86-4.47-2.79-8.94-2.79-13.41c0-4.3,0.83-8.62,2.48-12.94
		s3.93-8.06,6.83-11.2c3.35-3.68,7.32-6.54,11.92-8.57c4.51-1.99,9.23-2.98,14.15-2.98c7.66,0,14.59,2.26,20.79,6.77
		c9.68,7.03,14.48,17.24,14.4,30.6h-14.46l-18.62,0.06L115.62,348.06z M131.51,343.96v-18.09c-0.08-3.88-0.17-6.2-0.25-6.97
		c-0.08-0.76-0.37-1.48-0.87-2.13c-1.16-1.61-3.52-2.42-7.08-2.42c-3.64,0-5.92,0.93-6.83,2.79c-0.58,1.12-0.87,4.03-0.87,8.73
		v18.09l7.57,0.25L131.51,343.96z"/>
	<path class="st7" d="M222.66,309.52l22.2-41.52c10.99-20.33,19.76-37.26,26.29-50.82c1.74-3.63,3.13-6.04,4.18-7.24
		c1.04-1.19,2.31-1.79,3.8-1.79c1.41,0,2.66,0.48,3.74,1.43c1.08,0.95,1.62,2.09,1.62,3.41c0,1.41-0.87,3.64-2.61,6.7
		c-0.41,0.74-0.83,1.45-1.24,2.11c-0.83,1.32-1.9,3.19-3.23,5.59L185.6,393L79.52,210.51h87.02L222.66,309.52z"/>
	<path class="st7" d="M306.72,200.33l99.25,179.64h-86.09l-11.99-22.72h-41.57l-36.62-0.12l-6.18-0.12l-8.17,15.17
		c-2.39,4.56-4.07,7.39-5.03,8.5c-0.96,1.1-2.15,1.66-3.57,1.66c-2.83,0-4.25-1.24-4.25-3.72c0-1.08,0.81-3.08,2.42-6.02
		c1.61-2.94,7.27-12.6,16.96-28.99l75.15-126.5L306.72,200.33z M268.1,281.89l-21.69,36.49l-17.35,30.06l37.03,0.5l37.15-0.5
		L268.1,281.89z"/>
	<path class="st2" d="M406.09,331.42l-0.12,23.84l0.25,24.7h-24.84l0.08-3.41l0.07-12.66l0.22-22.78l-0.3-25.33l-0.08-3.6h24.78
		v12.79c4.75-5.05,8.05-8.23,9.91-9.56c4.29-3.02,8.34-4.53,12.14-4.53c2.31,0,4.22,0.5,5.73,1.49s2.26,2.26,2.26,3.79
		c0,1.2-0.46,2.19-1.36,2.98c-0.91,0.79-2.04,1.18-3.41,1.18c-0.87,0-1.84-0.25-2.91-0.74c-1.82-0.87-3.32-1.3-4.52-1.3
		c-2.97,0-5.85,1.01-8.61,3.04C412.61,323.33,409.51,326.71,406.09,331.42z"/>
	<path class="st2" d="M475.35,290.33l-0.68,20.05l-0.06,1.92c3.6,0,6.87-0.14,9.81-0.43c0.5-0.04,0.93-0.06,1.3-0.06
		c1.82,0,2.73,0.84,2.73,2.52c0,1.55-0.95,2.32-2.86,2.32c-0.58,0-1.3-0.04-2.17-0.12c-3.27-0.25-5.61-0.37-7.01-0.37h-1.8
		l-0.06,12.02l0.21,24.11l0.16,12.9c0,3.02,0.23,5.13,0.69,6.33s1.25,1.8,2.37,1.8c1.5,0,3.1-0.87,4.8-2.61
		c1.66-1.74,2.97-3.87,3.93-6.39c0.87-2.4,1.9-3.6,3.1-3.6c1.41,0,2.11,0.79,2.11,2.36c0,1.57-0.7,3.53-2.11,5.87
		c-1.41,2.34-3.1,4.38-5.09,6.11c-4.88,4.26-11.21,6.39-18.99,6.39c-7.32,0-12.99-2.21-17.01-6.63c-2.07-2.23-3.5-4.72-4.28-7.47
		c-0.79-2.75-1.18-6.56-1.18-11.44v-4.65l0.06-13.08v-22.2c-0.58-0.04-0.99-0.06-1.24-0.06c-0.41,0-1.24,0.04-2.48,0.12
		c-1.03,0.08-1.9,0.12-2.61,0.12c-2.03,0-3.04-0.78-3.04-2.33c0-1.51,0.97-2.26,2.92-2.26c0.91,0,1.55,0.02,1.92,0.06l4.53,0.31
		v-7.01C455.56,300.49,466.24,295.63,475.35,290.33z"/>
</g>
</svg>
